<svg xmlns="http://www.w3.org/2000/svg" width="333.431" height="44.045" viewBox="0 0 333.431 44.045">
  <defs>
    <style>
      .cls-1 {
        fill: #fff;
      }
    </style>
  </defs>
  <g id="Group_3559" data-name="Group 3559" transform="translate(-1511 681)">
    <path id="Path_5085" data-name="Path 5085" class="cls-1" d="M-391.748-100.6a.186.186,0,0,1,.051-.153.587.587,0,0,0-.051-.865.188.188,0,0,1-.051-.153v-6.713c.661-.2.559-.713-.305-.865a74.634,74.634,0,0,0-9-.966,74.634,74.634,0,0,0-9,.966c-1.017.153-1.017.814,0,.967.559.1,1.221.2,1.882.3v3.306a.58.58,0,0,0,.712.559,24.3,24.3,0,0,1,6.408-.763,25.329,25.329,0,0,1,6.408.763.58.58,0,0,0,.712-.559v-3.356c.559-.1,1.119-.153,1.627-.254v6.662c0,.051,0,.051-.051.1a.552.552,0,0,0-.051.865c.051.05.051.05.051.1a8.814,8.814,0,0,1-.356,1.069.335.335,0,0,0,.051.3l.051.051a.8.8,0,0,0,.763.153.676.676,0,0,0,.509-.306.1.1,0,0,0,0-.153C-391.493-99.888-391.646-100.243-391.748-100.6Z" transform="translate(1953.298 -570.686)"/>
    <path id="Path_5086" data-name="Path 5086" class="cls-1" d="M-425.774-103.8h-11.342a1.421,1.421,0,0,0-1.424,1.424v26.09l-8.29-33.109a1.425,1.425,0,0,0-1.322-.916h-12.41a1.376,1.376,0,0,0-1.322.916l-10.681,41.145a1.443,1.443,0,0,0,1.322,1.984h10.63v-23.4l.153-.153a2.078,2.078,0,0,1,1.78-.916,2.079,2.079,0,0,1,1.78.916.529.529,0,0,0,.814,0,2.079,2.079,0,0,1,1.78-.916,2.078,2.078,0,0,1,1.78.916.529.529,0,0,0,.814,0,2.078,2.078,0,0,1,1.78-.916,2.079,2.079,0,0,1,1.78.916l.153.153V-66.32h12.308v-35.093a1.654,1.654,0,0,1,1.271-.559,1.655,1.655,0,0,1,1.272.559V-66.32h.559v-35.093a1.655,1.655,0,0,1,1.272-.559,1.654,1.654,0,0,1,1.271.559V-66.32h.56v-35.042a1.652,1.652,0,0,1,1.271-.56,1.652,1.652,0,0,1,1.271.56v35.093h1.322a1.422,1.422,0,0,0,1.424-1.424v-34.686A1.725,1.725,0,0,0-425.774-103.8Zm-24.26,12.155a2.915,2.915,0,0,0-2.136.865,3,3,0,0,0-2.136-.865,2.915,2.915,0,0,0-2.136.865,3,3,0,0,0-2.136-.865,2.738,2.738,0,0,0-1.119.2l4.577-6.714a1.113,1.113,0,0,1,1.678,0l4.577,6.714A3.339,3.339,0,0,0-450.034-91.649Z" transform="translate(1983.662 -570.686)"/>
    <rect id="Rectangle_827" data-name="Rectangle 827" class="cls-1" width="2.696" height="3.153" transform="translate(1529.61 -652.874)"/>
    <path id="Path_5087" data-name="Path 5087" class="cls-1" d="M-442.571-59.413v.153h2.7v-3.154A2.99,2.99,0,0,0-442.571-59.413Z" transform="translate(1968.875 -594.224)"/>
    <path id="Path_5088" data-name="Path 5088" class="cls-1" d="M-436.071-62.414v3.154h2.7v-.153A3.031,3.031,0,0,0-436.071-62.414Z" transform="translate(1965.681 -594.224)"/>
    <rect id="Rectangle_828" data-name="Rectangle 828" class="cls-1" width="2.696" height="3.153" transform="translate(1526.304 -652.874)"/>
    <path id="Path_5089" data-name="Path 5089" class="cls-1" d="M-343.871-48.8h2.8v-1.119H-327.9V-48.9h2.848v-12.41h-18.818Zm2.8-9.867H-327.9v6.1h-13.173Z" transform="translate(1920.374 -594.765)"/>
    <path id="Path_5090" data-name="Path 5090" class="cls-1" d="M-333.2-86.748l-2.085,1.627a45.016,45.016,0,0,1,3.814,3.357c-4.374.1-8.8.254-12.766.356a76.216,76.216,0,0,0,4.526-7.579c.356,0,.661-.05.763-.3l-3.458-1.323a53.523,53.523,0,0,1-5.086,9.307l-4.984.153.966,3.2c.254-.051.509-.153.56-.458,5.238-.153,13.732-.457,21.768-.813a17.683,17.683,0,0,1,1.933,2.543l2.34-1.933C-326.482-81.052-330.144-84.409-333.2-86.748Z" transform="translate(1924.6 -580.367)"/>
    <path id="Path_5091" data-name="Path 5091" class="cls-1" d="M-277.922-71.365a16.762,16.762,0,0,0-4.323-2.848l-1.526,1.882a19.737,19.737,0,0,1,4.272,3.1Z" transform="translate(1890.84 -588.426)"/>
    <path id="Path_5092" data-name="Path 5092" class="cls-1" d="M-268.769-79.731v3.968h1.729v-5.951l1.17-.1c.051.254.1.509.153.713l1.373-.509a15.787,15.787,0,0,0-1.17-3.256l-1.271.509.458,1.017-1.831.051a34.6,34.6,0,0,0,2.7-3.56.991.991,0,0,0,.407-.051v.865h7.069V-86.5a20.1,20.1,0,0,1,2.136,1.984l-1.068,1.271-1.475.05.559,2.136a.561.561,0,0,0,.458-.356c.56,0,1.221-.05,1.984-.1v1.425l-1.984-.56a13.041,13.041,0,0,1-1.17,3.537v-3.232h-5.595v4.373h5.595v-.9a12.2,12.2,0,0,1,1.17.851,11.884,11.884,0,0,0,1.475-3.764,1.009,1.009,0,0,0,.458-.1v4.273h1.831v-5.951l1.322-.1.254.814,1.475-.662a10.793,10.793,0,0,0-1.475-3.254l-1.373.61a8.346,8.346,0,0,1,.509.966l-2.085.051a33.724,33.724,0,0,0,2.9-3.662c.305.05.559,0,.661-.2l-1.933-1.119a20.94,20.94,0,0,1-1.475,2.238c-.254-.254-.509-.509-.814-.763.559-.865,1.17-1.882,1.628-2.593a.656.656,0,0,0,.559-.254l-1.933-1.017a26.087,26.087,0,0,1-1.475,2.9l-.407-.254-.763,1.119v-.763h-7.069v.458l-1.729-.967c-.356.61-.763,1.373-1.271,2.086a9,9,0,0,0-.712-.662c.56-.915,1.17-1.933,1.526-2.644a.694.694,0,0,0,.61-.254l-1.983-.967a14.775,14.775,0,0,1-1.373,2.9l-.356-.254-.966,1.373a14.131,14.131,0,0,1,2.238,2.034c-.305.457-.661.915-.966,1.322l-1.526.051.61,2.136a.569.569,0,0,0,.407-.356l1.78-.1v1.322l-1.78-.509a11.674,11.674,0,0,1-1.271,3.764,6.086,6.086,0,0,1,1.322.915,12.24,12.24,0,0,0,1.526-3.814A.455.455,0,0,0-268.769-79.731Zm8.443,2.39h-2.136v-1.678h2.136Z" transform="translate(1884.993 -580.416)"/>
    <path id="Path_5093" data-name="Path 5093" class="cls-1" d="M-278.858-58.614a86.531,86.531,0,0,1-3.713,9.409l2.9,1.628a.943.943,0,0,0,.1-.356.81.81,0,0,0-.254-.509c.915-2.237,2.238-5.645,3.153-8.748Z" transform="translate(1890.251 -596.092)"/>
    <rect id="Rectangle_829" data-name="Rectangle 829" class="cls-1" width="5.544" height="1.424" transform="translate(1620.853 -663.097)"/>
    <path id="Path_5094" data-name="Path 5094" class="cls-1" d="M-278.451-84.277l1.678-2.085a20.066,20.066,0,0,0-4.221-3.052l-1.577,1.831A18.888,18.888,0,0,1-278.451-84.277Z" transform="translate(1890.251 -580.956)"/>
    <rect id="Rectangle_830" data-name="Rectangle 830" class="cls-1" width="5.544" height="1.424" transform="translate(1620.853 -665.386)"/>
    <path id="Path_5095" data-name="Path 5095" class="cls-1" d="M-234.971-70.507a22.807,22.807,0,0,1,1.119,3.866l1.526-.509a21.054,21.054,0,0,0-1.17-3.764Z" transform="translate(1866.86 -590.047)"/>
    <rect id="Rectangle_831" data-name="Rectangle 831" class="cls-1" width="5.137" height="1.424" transform="translate(1621.056 -670.167)"/>
    <path id="Path_5096" data-name="Path 5096" class="cls-1" d="M-252.1-53.712h-12.664l.305-1.271h12.918v-4.729h-16.275v1.729h13.732v1.221H-266.6c-.407,1.678-.966,3.764-1.475,5.188l2.492.356.254-.814h12.308c-.509,1.984-.916,1.984-2.034,1.984-.661,0-2.34,0-3.967-.153a4.642,4.642,0,0,1,.712,2.085c1.068.051,2.136.1,2.95.1,3.2,0,4.221-.1,5.137-4.781.153-.1.2-.356.254-.559l-1.577-.458Z" transform="translate(1883.125 -595.552)"/>
    <path id="Path_5097" data-name="Path 5097" class="cls-1" d="M-260.859-67.3l1.475-.406a21.081,21.081,0,0,0-.763-3.1l-1.424.306A21.684,21.684,0,0,1-260.859-67.3Z" transform="translate(1879.931 -590.096)"/>
    <path id="Path_5098" data-name="Path 5098" class="cls-1" d="M-200.169-86.783l.1-1.069c.407-.05.661-.2.712-.509l-3.764-.254c-.2,3.866,0,17.7-11.952,24.006a9.321,9.321,0,0,1,2.289,2.137c6.917-4.018,10.019-10.426,11.393-15.97,1.577,5.7,4.933,12.512,12.1,15.97a8.059,8.059,0,0,1,2.085-2.34C-198.033-69.8-199.864-82.409-200.169-86.783Z" transform="translate(1857.081 -581.35)"/>
    <path id="Path_5099" data-name="Path 5099" class="cls-1" d="M-130.476-64.791V-81.116H-120.1v-2.8h-23.446v2.8h10.121v16.326h-11.545v2.747h26.244v-2.747h-11.749Z" transform="translate(1822.633 -583.659)"/>
    <path id="Path_5100" data-name="Path 5100" class="cls-1" d="M-67.971-48.556h2.7v-1.069h12.41v1.017h2.848V-60.814H-67.971Zm2.7-10.02h12.359v2.289H-65.275Zm0,4.374h12.359v2.39H-65.275Z" transform="translate(1784.795 -595.011)"/>
    <path id="Path_5101" data-name="Path 5101" class="cls-1" d="M-48.171-85.513v11.494h2.594v-1.373h5.595v1.271h2.746V-85.513H-48.171Zm2.645,2.441h5.595v5.34h-5.595Z" transform="translate(1775.065 -582.873)"/>
    <path id="Path_5102" data-name="Path 5102" class="cls-1" d="M-69.945-79.07c1.424,1.017,3.357,2.39,4.272,3.153l1.933-1.831c-.814-.559-4.12-2.543-5.289-3.1l.051-.153h5.289V-83.24h-4.832a5.846,5.846,0,0,0,.051-.915v-1.526h4.12V-87.92h-7.782c.2-.509.407-1.017.559-1.526q.534,0,.61-.3l-2.9-.763a14.329,14.329,0,0,1-3.052,5.95,12.71,12.71,0,0,1,2.034,1.271,12.417,12.417,0,0,0,1.678-2.39h2.136v1.474a5.841,5.841,0,0,1-.051.915h-5.951V-81.1h5.391c-.712,1.627-2.238,3.356-5.7,4.679a10.01,10.01,0,0,1,1.729,1.882A12.528,12.528,0,0,0-69.945-79.07Z" transform="translate(1789.414 -580.416)"/>
    <path id="Path_5103" data-name="Path 5103" class="cls-1" d="M17.468-68.213H-2.368v1.78h17.14v1.373H-1.5v1.678H14.772v1.373H-2.571v1.729H5.821l-.865.713a15.518,15.518,0,0,1,4.323,3.1l1.882-1.678a11.616,11.616,0,0,0-2.9-2.186h9.206Z" transform="translate(1752.657 -591.375)"/>
    <path id="Path_5104" data-name="Path 5104" class="cls-1" d="M-7.471-82.329l.712,2.238a.485.485,0,0,0,.407-.407c1.017-.051,2.34-.153,3.764-.254h.1v.966H.056v-1.22c1.424-.1,2.95-.254,4.425-.356l.051-1.577-4.476.254v-1.17h3.56v-1.729H.056v-1.17H4.43v-1.678H.056v-1.22c.458-.1.61-.2.661-.458l-3.255-.2v1.831H-7.115v1.729h4.577v1.119H-6.25v1.73h3.713v1.322Z" transform="translate(1755.065 -580.514)"/>
    <path id="Path_5105" data-name="Path 5105" class="cls-1" d="M23.012-79.836h2.594v-1.119h5.7v-1.729h-5.7v-1.17h3.967v-1.729H25.605v-1.17h4.933v-1.678H25.605v-1.22c.458-.1.61-.2.661-.458l-3.255-.2v1.831H18.536v1.729h4.476v1.221H19.5v1.73h3.509v1.17H18.129V-80.9h4.883Z" transform="translate(1742.485 -580.514)"/>
    <path id="Path_5106" data-name="Path 5106" class="cls-1" d="M15.629-46.144H11.1c-1.424,0-1.678-.153-1.678-.865v-2.644c.458-.051.661-.2.712-.458l-3.408-.2v3.357c0,2.492.814,3.2,4.12,3.2h5.086c2.441,0,3.255-.712,3.56-3.764a7.372,7.372,0,0,1-2.441-.915C16.952-46.448,16.748-46.144,15.629-46.144Z" transform="translate(1748.087 -600.17)"/>
    <path id="Path_5107" data-name="Path 5107" class="cls-1" d="M32.565-50.713l-2.136,1.322A19.507,19.507,0,0,1,35.515-44.2l2.34-1.424A20.3,20.3,0,0,0,32.565-50.713Z" transform="translate(1736.441 -599.974)"/>
    <path id="Path_5108" data-name="Path 5108" class="cls-1" d="M-8.571-45.584l2.136,1.627a8.848,8.848,0,0,0,4.272-5.493l-2.34-.865A7.771,7.771,0,0,1-8.571-45.584Z" transform="translate(1755.606 -600.17)"/>
    <path id="Path_5109" data-name="Path 5109" class="cls-1" d="M81.873-60.786a1,1,0,0,0,.61-.306l-2.034-1.322-.407.153H66.717v2.034h10.63a23.384,23.384,0,0,1-2.7,1.577L73.023-58.7v1.526H61.529v2.238H73.023v2.848c0,.356-.1.458-.61.509-.458,0-2.136,0-3.814-.05a8.283,8.283,0,0,1,.915,2.339c5.188,0,6.256-.254,6.256-2.746v-2.9H87.315v-2.187H75.821A38.9,38.9,0,0,0,81.873-60.786Z" transform="matrix(1, -0.017, 0.017, 1, 1722.144, -592.934)"/>
    <path id="Path_5110" data-name="Path 5110" class="cls-1" d="M79.329-86A10.711,10.711,0,0,1,80.7-84.779a18.1,18.1,0,0,0,2.645-1.576,11.789,11.789,0,0,1,1.577,1.322L86.3-86.254q-.61-.533-1.526-1.22a7.53,7.53,0,0,0,1.271-1.271c.305,0,.509-.1.559-.254l-2.136-.814a14.043,14.043,0,0,1-1.221,1.271c-.61-.355-1.271-.712-1.882-1.017l-1.322,1.119c.61.306,1.17.713,1.78,1.069A17.035,17.035,0,0,1,79.329-86Z" transform="translate(1712.411 -580.76)"/>
    <path id="Path_5111" data-name="Path 5111" class="cls-1" d="M64.674-77.353H84.712v3.612h2.746v-5.7H85.17c.254-2.7.509-6.459.661-9.511h-7.12v1.78h4.425L83.085-85.8H78.813v1.78h4.12l-.1,1.374h-4.12v1.78h3.967l-.153,1.373H66.861l-.1-1.373h3.967v-1.78H66.657l-.1-1.374h4.069V-85.8H66.5l-.051-.966c1.322-.355,3-.814,3.967-1.17.1,0,.153.051.254.051a.55.55,0,0,0,.356-.153L69.4-89.814c-.966.407-2.492,1.017-3.865,1.475l-1.78-.406.559,9.256H62.029v5.645h2.645Z" transform="translate(1720.913 -580.76)"/>
    <path id="Path_5112" data-name="Path 5112" class="cls-1" d="M86.246-79.2a.519.519,0,0,0,.61-.254l-2.187-.865a8.644,8.644,0,0,1-1.322,1.425c-.61-.407-1.271-.763-1.831-1.069l-1.322,1.119c.61.357,1.221.713,1.78,1.068a14.106,14.106,0,0,1-2.645,1.526A16.978,16.978,0,0,1,80.7-74.974a18.134,18.134,0,0,0,2.746-1.678,10.15,10.15,0,0,1,1.678,1.424L86.5-76.5a12.106,12.106,0,0,0-1.628-1.322A11.607,11.607,0,0,0,86.246-79.2Z" transform="translate(1712.411 -585.428)"/>
    <path id="Path_5113" data-name="Path 5113" class="cls-1" d="M166.255-85.992h-6.917v-3.56c.458-.1.61-.254.661-.509l-3.408-.152v4.221h-6.663v2.543h16.326Z" transform="translate(1677.718 -580.564)"/>
    <path id="Path_5114" data-name="Path 5114" class="cls-1" d="M150.311-68.034a22.489,22.489,0,0,0,4.832-6.256.633.633,0,0,0,.661-.254l-2.9-1.169a18.369,18.369,0,0,1-4.476,5.951A12.252,12.252,0,0,1,150.311-68.034Z" transform="translate(1678.455 -587.689)"/>
    <path id="Path_5115" data-name="Path 5115" class="cls-1" d="M158.364-62.945a21.714,21.714,0,0,0,3.255-6.51c.356,0,.559-.1.661-.357a11.129,11.129,0,0,1,.814,1.475l2.34-1.323a27.714,27.714,0,0,0-4.781-6.256l-2.136,1.17a33.809,33.809,0,0,1,3.764,4.883l-3.2-.713a19.713,19.713,0,0,1-2.441,5.493,22.246,22.246,0,0,1-2.8-5.34l-2.39.661a29.715,29.715,0,0,0,3.509,6.815,18.433,18.433,0,0,1-7.527,4.883,10.783,10.783,0,0,1,1.424,2.187,20.33,20.33,0,0,0,7.731-4.985,19.938,19.938,0,0,0,6.968,4.985,10,10,0,0,1,1.933-2.442A17.838,17.838,0,0,1,158.364-62.945Z" transform="translate(1678.947 -587.59)"/>
    <path id="Path_5116" data-name="Path 5116" class="cls-1" d="M135.651-79.584h.051v-1.933h3.458v-2.543H135.7V-89.6c.458-.051.611-.2.661-.458l-3.255-.152v6.153h-4.069v2.543H132.9c-.915,3.814-2.645,8.239-4.476,10.681a11.714,11.714,0,0,1,1.322,2.493,28.231,28.231,0,0,0,3.357-7.324v12.715h2.543V-76.176c.865,1.475,1.78,3.2,2.238,4.17l1.526-2.085C138.906-74.955,136.516-78.515,135.651-79.584Z" transform="translate(1688.283 -580.564)"/>
  </g>
</svg>
